<?xml version="1.0" encoding="utf-8"?>
<!-- Generator: Adobe Illustrator 18.0.0, SVG Export Plug-In . SVG Version: 6.00 Build 0)  -->
<!DOCTYPE svg PUBLIC "-//W3C//DTD SVG 1.1//EN" "http://www.w3.org/Graphics/SVG/1.1/DTD/svg11.dtd">
<svg version="1.1" xmlns="http://www.w3.org/2000/svg" xmlns:xlink="http://www.w3.org/1999/xlink" x="0px" y="0px"
	 viewBox="0 0 723.7 368.5" enable-background="new 0 0 723.7 368.5" xml:space="preserve">
<g id="LOGO_Oficial">
	<g id="A_1_">
		<path d="M386.2,279.7h-39.1l-24.1-169.5l-9.8,79.9v0.3h9.8v38.4h-16l-8,50.9h-38.5l8-50.9h-8.7v-38.4h14.9l24.6-154.9h47.3
			L386.2,279.7z"/>
	</g>
	<g id="ndres_1_">
		<path fill="#706F6F" stroke="#000000" stroke-miterlimit="10" d="M445.1,164.3v115.4H427l-16.5-51.6v51.6h-18.1V164.3h6.6h11.5
			v0.3L427,219v-54.7h6.6H445.1z"/>
		<path fill="#706F6F" stroke="#000000" stroke-miterlimit="10" d="M500.2,165.4c1.6,0.7,3,1.7,4.1,2.9c1.2,1.2,2.1,2.6,2.8,4.3
			c0.7,1.6,1.1,3.4,1.1,5.1v89c0,3.6-1.3,6.7-3.9,9.2c-2.6,2.5-5.6,3.8-9.1,3.8h-39.4V204h18.1v57.5h16.1v-79.1h-16.1V204
			l-18.1-35.9v-3.8h39.4C496.9,164.3,498.6,164.7,500.2,165.4z"/>
		<path fill="#706F6F" stroke="#000000" stroke-miterlimit="10" d="M575.4,279.7h-17.5L537,203.9h16.1v-21.4H537v21.4l-18.1-35.8
			v-3.8h39.3c3.4,0,6.3,1.1,8.8,3.3c2.4,2.2,3.9,4.9,4.3,8.2l0.2,33v0.2c0,3.3-1.1,6.2-3.4,8.7c-2.3,2.5-5,3.9-8.2,4.4L575.4,279.7z
			 M518.9,203.9H537v75.8h-18.1V203.9z"/>
		<path fill="#706F6F" stroke="#000000" stroke-miterlimit="10" d="M629.1,164.3v11.5v6.6h-29V204h23.1v3.3v11.5v3.3h-23.1v39.4h29
			v6.6v11.5h-29H582v-12V204h18.1L582,168.3v-4h18.1H629.1z"/>
		<path fill="#706F6F" stroke="#000000" stroke-miterlimit="10" d="M686.2,169.8c2.6,3.2,4,6.8,4,10.7v12.4v3.3h-3.3h-11.5H672v-3.3
			v-10.4h-14V203v0.8h15.6c4.6,0,8.6,1.6,11.8,4.8c3.2,3.2,4.8,7.1,4.8,11.7v16.4v26.6c0,3.9-1.3,7.5-4,10.7c-2.6,3-5.9,4.8-9.9,5.4
			l-0.3,0.2h-0.2h-21.6H654l-0.3-0.2c-4-0.7-7.2-2.5-9.9-5.4c-2.6-3.2-4-6.8-4-10.7V251v-3.3h3.3h11.6h3.3v3.3v10.5h14V222h-15.7
			c-4.6,0-8.5-1.6-11.7-4.8c-3.2-3.2-4.8-7.1-4.8-11.7v-1.2v-1.5v-22.4c0-4,1.3-7.5,4-10.7c2.6-3,5.9-4.8,9.9-5.4h0.3h0.2h21.6h0.2
			h0.3C680.2,165,683.5,166.8,686.2,169.8z"/>
	</g>
	<g id="C_1_">
		<path d="M159.3,270.3c-4.4-5.1-6.6-11.2-6.6-18.1v-25.8v-11.2h38.4v11v15.1h34.2V73.9h-34.2v15.5v11h-38.4V89.3V63.1
			c0-7,2.2-13,6.6-18.1c4.4-5.1,10-8.3,16.7-9.4h64.2c6.7,1.2,12.3,4.3,16.7,9.4c4.4,5.1,6.6,11.2,6.6,18.1v189c0,7-2.2,13-6.6,18.1
			c-4.4,5.1-10,8.2-16.7,9.4h-64.2C169.3,278.5,163.7,275.4,159.3,270.3z"/>
	</g>
	<g id="eron_1_">
		<path fill="#706F6F" stroke="#000000" stroke-miterlimit="10" d="M201,116.4h14v2.9l-14,26.5h14V193v8.9h-14h-22.4v-8.5v-4.9H201
			v-29.2h-17.8v-2.4v-8.5v-2.4H201v-16h-22.4V125v-8.5H201z"/>
		<path fill="#706F6F" stroke="#000000" stroke-miterlimit="10" d="M138.6,159.1c-2.5-0.3-4.6-1.4-6.3-3.2c-1.7-1.8-2.6-4-2.6-6.4
			v-0.1l0.1-24.4c0.3-2.4,1.4-4.5,3.3-6.1c1.9-1.6,4.1-2.4,6.8-2.4h30.4v2.8l-14,26.5v-15.9h-12.5v15.9h12.5l-16.1,56.2h-13.5
			L138.6,159.1z M170.3,201.9h-14v-56.2h14V201.9z"/>
		<path fill="#706F6F" stroke="#000000" stroke-miterlimit="10" d="M113.1,116.4c2.4,0.4,4.4,1.5,6,3.4c1.6,1.8,2.4,3.9,2.4,6.3
			v66.3c0,2.4-0.8,4.4-2.4,6.2c-1.6,1.8-3.6,2.9-6,3.3H89.6c-2.4-0.4-4.4-1.5-6-3.3c-1.6-1.8-2.4-3.9-2.4-6.2v-9.2v-44.1v-0.2v-3.7
			v-9.2c0-2.4,0.8-4.5,2.4-6.3c1.6-1.8,3.6-2.9,6-3.4H113.1z M95.2,139.1v44v5.4h12.3v-58.6H95.2v5.4v3.7V139.1z"/>
		<path fill="#706F6F" stroke="#000000" stroke-miterlimit="10" d="M41.1,116.4h5.1v40.5l12.7-40.3v-0.2h8.9h5.1v85.4h-14v-38.2
			l-12.7,38.2h-14v-85.4H41.1z"/>
	</g>
	<g id="WebDeveloper_1_">
		<path d="M32.2,327.2v-2H176v2H32.2z"/>
		<path d="M209.8,334.7h-3.1l-5.3-19.6l-5.2,19.6h-3.1l-6.8-23.9h2.5l5.9,20.8l5.7-20.8h2.3l5.7,20.8l5.9-20.8h2.5L209.8,334.7z"/>
		<path d="M228.4,334.7v-23.9h13.1v2.2h-10.7v8.6h10.3v2.2h-10.3v8.8h10.7v2.2H228.4z"/>
		<path d="M260.6,334.7h-5.9v-23.9h5.6c5.8,0,8.2,2.1,8.2,6.2c0,2.4-0.8,3.9-2.7,4.9c2.8,1.1,4,3,4,5.9
			C269.8,332.6,267.2,334.7,260.6,334.7z M259.9,313h-2.9v8.1h2.9c4.5,0,6-1,6-4C266,314.2,264.8,313,259.9,313z M259.9,323.3h-2.8
			v9.3h3.3c4.9,0,7-1.1,7-4.6C267.4,323.6,264.1,323.3,259.9,323.3z"/>
		<path d="M306.5,334.7h-6.4v-23.9h5.6c4.3,0,6.9,0.5,9.1,1.9c3.6,2.1,5.4,5.7,5.4,10.2C320.3,329.8,315.9,334.7,306.5,334.7z
			 M313.5,314.6c-1.8-1.1-4.1-1.6-7.7-1.6h-3.3v19.6h3.3c4.2,0,6.7-0.6,8.6-2.1c2.2-1.8,3.4-4.5,3.4-7.7
			C317.8,319.2,316.3,316.2,313.5,314.6z"/>
		<path d="M333.1,334.7v-23.9h13.1v2.2h-10.7v8.6h10.3v2.2h-10.3v8.8h10.7v2.2H333.1z"/>
		<path d="M369.4,334.7h-2.3l-9.8-23.9h2.6l8.4,20.9l8.4-20.9h2.6L369.4,334.7z"/>
		<path d="M391,334.7v-23.9h13.1v2.2h-10.7v8.6h10.3v2.2h-10.3v8.8h10.7v2.2H391z"/>
		<path d="M417.3,334.7v-23.9h2.4v21.7h9.9v2.2H417.3z"/>
		<path d="M452.8,335.2c-7,0-12.6-5.6-12.6-12.5c0-6.6,5.8-12.2,12.6-12.2c6.9,0,12.6,5.6,12.6,12.4
			C465.4,329.6,459.7,335.2,452.8,335.2z M452.8,312.6c-5.5,0-10.2,4.6-10.2,10.1c0,5.7,4.6,10.2,10.2,10.2
			c5.6,0,10.2-4.6,10.2-10.1C463,317.3,458.4,312.6,452.8,312.6z"/>
		<path d="M485.2,325.1h-4.6v9.7h-2.4v-23.9h6.6c6.6,0,9.2,2.2,9.2,7.2C494,322.6,491.7,325.1,485.2,325.1z M484,313h-3.4v9.9h4.4
			c4.8,0,6.6-1.4,6.6-4.8C491.6,313.2,488.6,313,484,313z"/>
		<path d="M506.3,334.7v-23.9h13.1v2.2h-10.7v8.6H519v2.2h-10.3v8.8h10.7v2.2H506.3z"/>
		<path d="M541.8,325.8l6.7,8.9h-3l-8-10.8c6.7,0,9-1.2,9-5.5c0-4-2.5-5.4-8-5.4H535v21.7h-2.4v-23.9h5.9c7.5,0,10.3,2.7,10.3,7.7
			C548.8,322.8,546.3,325.3,541.8,325.8z"/>
		<path d="M559.7,327.2v-2h130.4v2H559.7z"/>
	</g>
</g>
<g id="LOGO_WEB_header" display="none">
	<g id="A_2_" display="inline">
		<path d="M386.2,279.7h-39.1l-24.1-169.5l-9.8,79.9v0.3h9.8v38.4h-16l-8,50.9h-38.5l8-50.9h-8.7v-38.4h14.9l24.6-154.9h47.3
			L386.2,279.7z"/>
	</g>
	<g id="ndres_2_" display="inline">
		<path fill="#706F6F" stroke="#000000" stroke-miterlimit="10" d="M445.1,164.3v115.4H427l-16.5-51.6v51.6h-18.1V164.3h6.6h11.5
			v0.3L427,219v-54.7h6.6H445.1z"/>
		<path fill="#706F6F" stroke="#000000" stroke-miterlimit="10" d="M500.2,165.4c1.6,0.7,3,1.7,4.1,2.9c1.2,1.2,2.1,2.6,2.8,4.3
			c0.7,1.6,1.1,3.4,1.1,5.1v89c0,3.6-1.3,6.7-3.9,9.2c-2.6,2.5-5.6,3.8-9.1,3.8h-39.4V204h18.1v57.5h16.1v-79.1h-16.1V204
			l-18.1-35.9v-3.8h39.4C496.9,164.3,498.6,164.7,500.2,165.4z"/>
		<path fill="#706F6F" stroke="#000000" stroke-miterlimit="10" d="M575.4,279.7h-17.5L537,203.9h16.1v-21.4H537v21.4l-18.1-35.8
			v-3.8h39.3c3.4,0,6.3,1.1,8.8,3.3c2.4,2.2,3.9,4.9,4.3,8.2l0.2,33v0.2c0,3.3-1.1,6.2-3.4,8.7c-2.3,2.5-5,3.9-8.2,4.4L575.4,279.7z
			 M518.9,203.9H537v75.8h-18.1V203.9z"/>
		<path fill="#706F6F" stroke="#000000" stroke-miterlimit="10" d="M629.1,164.3v11.5v6.6h-29V204h23.1v3.3v11.5v3.3h-23.1v39.4h29
			v6.6v11.5h-29H582v-12V204h18.1L582,168.3v-4h18.1H629.1z"/>
		<path fill="#706F6F" stroke="#000000" stroke-miterlimit="10" d="M686.2,169.8c2.6,3.2,4,6.8,4,10.7v12.4v3.3h-3.3h-11.5H672v-3.3
			v-10.4h-14V203v0.8h15.6c4.6,0,8.6,1.6,11.8,4.8c3.2,3.2,4.8,7.1,4.8,11.7v16.4v26.6c0,3.9-1.3,7.5-4,10.7c-2.6,3-5.9,4.8-9.9,5.4
			l-0.3,0.2h-0.2h-21.6H654l-0.3-0.2c-4-0.7-7.2-2.5-9.9-5.4c-2.6-3.2-4-6.8-4-10.7V251v-3.3h3.3h11.6h3.3v3.3v10.5h14V222h-15.7
			c-4.6,0-8.5-1.6-11.7-4.8c-3.2-3.2-4.8-7.1-4.8-11.7v-1.2v-1.5v-22.4c0-4,1.3-7.5,4-10.7c2.6-3,5.9-4.8,9.9-5.4h0.3h0.2h21.6h0.2
			h0.3C680.2,165,683.5,166.8,686.2,169.8z"/>
	</g>
	<g id="C_2_" display="inline">
		<path d="M159.3,270.3c-4.4-5.1-6.6-11.2-6.6-18.1v-25.8v-11.2h38.4v11v15.1h34.2V73.9h-34.2v15.5v11h-38.4V89.3V63.1
			c0-7,2.2-13,6.6-18.1c4.4-5.1,10-8.3,16.7-9.4h64.2c6.7,1.2,12.3,4.3,16.7,9.4c4.4,5.1,6.6,11.2,6.6,18.1v189c0,7-2.2,13-6.6,18.1
			c-4.4,5.1-10,8.2-16.7,9.4h-64.2C169.3,278.5,163.7,275.4,159.3,270.3z"/>
	</g>
	<g id="eron_2_" display="inline">
		<path fill="#706F6F" stroke="#000000" stroke-miterlimit="10" d="M201,116.4h14v2.9l-14,26.5h14V193v8.9h-14h-22.4v-8.5v-4.9H201
			v-29.2h-17.8v-2.4v-8.5v-2.4H201v-16h-22.4V125v-8.5H201z"/>
		<path fill="#706F6F" stroke="#000000" stroke-miterlimit="10" d="M138.6,159.1c-2.5-0.3-4.6-1.4-6.3-3.2c-1.7-1.8-2.6-4-2.6-6.4
			v-0.1l0.1-24.4c0.3-2.4,1.4-4.5,3.3-6.1c1.9-1.6,4.1-2.4,6.8-2.4h30.4v2.8l-14,26.5v-15.9h-12.5v15.9h12.5l-16.1,56.2h-13.5
			L138.6,159.1z M170.3,201.9h-14v-56.2h14V201.9z"/>
		<path fill="#706F6F" stroke="#000000" stroke-miterlimit="10" d="M113.1,116.4c2.4,0.4,4.4,1.5,6,3.4c1.6,1.8,2.4,3.9,2.4,6.3
			v66.3c0,2.4-0.8,4.4-2.4,6.2c-1.6,1.8-3.6,2.9-6,3.3H89.6c-2.4-0.4-4.4-1.5-6-3.3c-1.6-1.8-2.4-3.9-2.4-6.2v-9.2v-44.1v-0.2v-3.7
			v-9.2c0-2.4,0.8-4.5,2.4-6.3c1.6-1.8,3.6-2.9,6-3.4H113.1z M95.2,139.1v44v5.4h12.3v-58.6H95.2v5.4v3.7V139.1z"/>
		<path fill="#706F6F" stroke="#000000" stroke-miterlimit="10" d="M41.1,116.4h5.1v40.5l12.7-40.3v-0.2h8.9h5.1v85.4h-14v-38.2
			l-12.7,38.2h-14v-85.4H41.1z"/>
	</g>
</g>
</svg>
